<svg xmlns="http://www.w3.org/2000/svg" viewBox="0 0 504.02 377.24"><defs><style>.cls-1{fill:#f2e205;}.cls-2{fill:#fff;}</style></defs><g id="Layer_2" data-name="Layer 2"><g id="Layer_1-2" data-name="Layer 1"><path class="cls-1" d="M244,143.76v122a11.51,11.51,0,0,1-11.52,11.51H.51a49,49,0,0,1,49-49H168.14a23.37,23.37,0,0,0,23.37-23.37h0a23.63,23.63,0,0,0-23.63-23.63H.51a49,49,0,0,1,49-49h183A11.52,11.52,0,0,1,244,143.76Z"/><path d="M248.62,143.76c.83,40.42,0,81.63-.47,122.11,0,8-6.93,15.17-14.94,15.27-66.81-.65-165.64-2.26-232.7-3.4a.48.48,0,0,1-.5-.5c.07-1.36,0-3.89.09-5.18a50.1,50.1,0,0,1,25.34-39.81c1.51-.74,3.24-1.75,4.78-2.37,1.33-.49,3.72-1.55,5-1.85a48.19,48.19,0,0,1,5.2-1.3,75.53,75.53,0,0,1,14-1.11c35.22-.65,74-1,109.19-1.19,2.24,0,4.71,0,6.45-.12,14.39-1.46,22.2-17.86,14.41-30a19.93,19.93,0,0,0-14.62-9.11c-1.25-.11-4.25-.12-5.59-.12-35.23-.15-73.83-.68-109.19-1.52-18.19-.48-36.39-1-54.59-1.8a.5.5,0,0,1-.5-.5c-.47-24.34,17.71-46.23,41.84-50,5-1,12.45-.76,17.59-.89,49.65-.72,115.38-1.63,165.07-2.35,2.17,0,6.56-.17,9-.08a16.11,16.11,0,0,1,15.16,15.84Zm-9.22,0c.06-4.53-3.91-7.61-8.37-7.18l-2.17,0c-2.54-.08-10.34-.13-13-.19C166,135.68,100.4,134.7,50.75,134a49.22,49.22,0,0,0-24.35,5.58A48,48,0,0,0,4.34,164.51,49.48,49.48,0,0,0,1,181.24l-.5-.5c18.2-.82,36.4-1.31,54.59-1.79,35.4-.82,73.91-1.39,109.19-1.53,1.65,0,4.68,0,6.35.12a27.66,27.66,0,0,1,20.45,12.55c7.52,11.3,4.89,27.48-5.75,35.89-6.4,5.27-13.82,6.46-21.7,6.08-36.44-.17-76.17-.57-112.6-1.26a47.8,47.8,0,0,0-37.89,16A49.14,49.14,0,0,0,1,277.24l-.5-.5,93-1.54c30.61-.45,109.71-1.57,139.33-1.91a7.46,7.46,0,0,0,7-7.49l-.07-5.78c-.5-38.54-1.15-77.78-.39-116.26Z"/><path class="cls-1" d="M260,143.76v122a11.51,11.51,0,0,0,11.51,11.51h232a49,49,0,0,0-49-49H335.88a23.37,23.37,0,0,1-23.37-23.37h0a23.63,23.63,0,0,1,23.63-23.63H503.51a49,49,0,0,0-49-49h-183A11.51,11.51,0,0,0,260,143.76Z"/><path d="M264.35,143.76c.62,35.8,0,80.3-.46,116.26l-.06,5.78a7.78,7.78,0,0,0,7.32,7.8c29.27.32,109,1.35,139.35,1.75l93,1.39-.5.5a49.15,49.15,0,0,0-12.19-30.37,47.74,47.74,0,0,0-37.84-16c-36.42.71-76.17,1.14-112.6,1.29-2.31,0-4.4.07-7.22-.12a27.77,27.77,0,0,1-14.58-6A27.47,27.47,0,0,1,312.83,190a27.79,27.79,0,0,1,20.53-12.6c1.72-.12,4.61-.15,6.37-.12,35.23.19,73.83.74,109.18,1.61,18.2.5,36.4,1,54.6,1.83l-.5.5a49.46,49.46,0,0,0-3.31-16.73,48.08,48.08,0,0,0-22.05-25,49.38,49.38,0,0,0-24.39-5.62c-53,.69-120.63,1.62-173.75,2.31-1.88.08-6.56,0-8.44.15a7.33,7.33,0,0,0-6.72,7.38Zm-8.68,0A15.91,15.91,0,0,1,273,128.17c1.19,0,5.22.08,6.52.08l165.07,2.2c4.12.08,11.28,0,15.36.5a52.15,52.15,0,0,1,19,6.33,50.3,50.3,0,0,1,25.1,44,.5.5,0,0,1-.5.5c-26.25,1.2-55.47,1.88-81.89,2.45s-55.58.85-81.89,1h-3.42c-.79,0-1.4.09-2.16.11a19.76,19.76,0,0,0-14.53,9.06c-6.46,9.9-2.15,24,8.86,28.42,3.9,1.65,7.47,1.52,11.9,1.51,9.1,0,18.19.08,27.29.16,28,.3,61,.45,88.82,1.29,21.67,1,40.89,16.66,46.07,37.76l.74,3.4c.31,1.68.38,3.47.63,5.16.09,1.78,0,3.54.08,5.18-45.86,2.17-140.09,2.05-186.52,3.1l-46.67.49a15.19,15.19,0,0,1-12.58-7.6,15.36,15.36,0,0,1-2-7.36l-.07-5.85c-.3-36-1.2-80.41-.46-116.26Z"/><path class="cls-1" d="M480.92,25.46,338,108A49,49,0,0,1,271.09,90h0L414,7.53a49,49,0,0,1,66.93,17.93Z"/><path d="M481.17,25.89c-44.76,27.58-90.84,55-136.23,81.59-3.21,1.89-6.83,4-10.21,5.63L331,114.6l-.93.36c-1.46.47-3.38,1-4.84,1.39-1.9.36-4,.82-5.94,1l-4,.32a46.59,46.59,0,0,1-36.07-14.45c-3.44-3.87-7-7.93-8.53-13l-.86-2.49L375.09,28.2,408,9.58c3.07-1.77,6.88-3.88,10.1-5.4l3.62-1.38.9-.34c1.36-.42,3.29-.87,4.66-1.27a50.71,50.71,0,0,1,17.24-.7A49.73,49.73,0,0,1,481.1,24.81l.13.2.06.1,0,.05c-.07.32.21-.65-.15.73Zm-.5-.86c-.37,1.35-.12.34-.21.63l0-.05-.07-.1-.13-.19-.25-.39A48.4,48.4,0,0,0,427.73,3.22c-1.65.5-3.7,1-5.29,1.63L419,6.22c-2.05,1-4.61,2.37-6.54,3.55l-35.84,21.1L272.39,92.26l-.86-2.48c2.05,1.67,3.24,3.8,5,5.52,9.47,10.38,24.59,16.17,38.49,16a52.56,52.56,0,0,0,5.28-.48,37.8,37.8,0,0,0,5.18-1.08,28.9,28.9,0,0,0,3.39-1l3.3-1.27c2-1,4.46-2.2,6.41-3.36C385.48,77.44,433.29,50.62,480.67,25Z"/><path class="cls-1" d="M25.09,25.46,168,108A49,49,0,0,0,234.92,90h0L92,7.53A49,49,0,0,0,25.09,25.46Z"/><path d="M25.34,25C72,50,118.23,75.84,164.23,102c3,1.71,6.63,3.78,9.67,5.22l3.29,1.27a28,28,0,0,0,3.37,1A47.54,47.54,0,0,0,191,111.09c11.87.28,23.86-3.22,33.26-10.69a46.78,46.78,0,0,0,5.29-5.05c1.78-1.73,2.95-3.88,5-5.57l-1,2.66L129.33,31c-9-5.25-30.27-18-39.07-23L87,6.28,83.56,4.9l-.86-.34c-1.3-.43-3.12-.89-4.43-1.29A48.36,48.36,0,0,0,26,24.93l-.25.39-.13.2-.07.09,0,.05c-.09-.29.16.72-.22-.63Zm-.5.86c-.35-1.38-.08-.41-.15-.73l0-.05.07-.1.13-.2A49.74,49.74,0,0,1,61.5.45a50.57,50.57,0,0,1,17.26.69c1.39.37,3.3.88,4.67,1.27.41.17,4,1.5,4.52,1.71,3.24,1.54,7,3.61,10.11,5.4,4.11,2.35,28.25,15.94,32.92,18.59l105.34,59.5-1,2.67c-1.62,5-5.18,9-8.65,12.84-7.42,7.53-17.29,12.95-27.9,14.3a48.15,48.15,0,0,1-20-1.41A36,36,0,0,1,175,114.8a53.59,53.59,0,0,1-7.34-3.33q-72-41.73-142.77-85.58Z"/><path class="cls-2" d="M140.17,313.88V366a11.25,11.25,0,0,1-11.25,11.25h0V313.88H71.65A12.64,12.64,0,0,1,59,301.24H385v12.64Z"/><path class="cls-2" d="M382.17,313.88V366a11.25,11.25,0,0,1-11.25,11.25h0V313.88h-22.5V301.24h83.95A12.64,12.64,0,0,1,445,313.88H382.17Z"/><path class="cls-2" d="M250.65,367.26l-9.32-17a4.72,4.72,0,0,1,4.13-7h11.71a5.63,5.63,0,1,0,0-11.25H229v33.75A11.25,11.25,0,0,1,217.79,377h0V320.79h39.38a16.88,16.88,0,1,1,0,33.75h-2.46L267.19,377h0A18.88,18.88,0,0,1,250.65,367.26Z"/><path class="cls-2" d="M291.09,344.51v21.28A11.25,11.25,0,0,1,279.84,377h0V330.31a9.53,9.53,0,0,1,9.53-9.52h1.72l28.7,33.48a2.87,2.87,0,0,0,5-1.87V332a11.25,11.25,0,0,1,11.25-11.25h0v45A11.25,11.25,0,0,1,324.84,377h0l-29.29-34.18A2.54,2.54,0,0,0,291.09,344.51Z"/><path class="cls-2" d="M348.58,377h0V332a11.25,11.25,0,0,1,11.25-11.25h0v45A11.25,11.25,0,0,1,348.58,377Z"/><path class="cls-2" d="M410.92,350.67l-22.5-29.88H396A13,13,0,0,1,406.38,326l10.17,13.53,10-13.31a13.53,13.53,0,0,1,10.82-5.41h7.3l-22.5,29.8v15.2A11.25,11.25,0,0,1,410.92,377h0Z"/><path class="cls-2" d="M116,332H78.53A7.58,7.58,0,0,0,71,339.62v19.13a7,7,0,0,0,7,7H104.7A11.25,11.25,0,0,1,116,377H73.86A14.16,14.16,0,0,1,59.7,362.88V335a14.16,14.16,0,0,1,14.16-14.17H104.7A11.25,11.25,0,0,1,116,332Z"/><path class="cls-2" d="M207,332H169.53a7.58,7.58,0,0,0-7.58,7.58v19.13a7,7,0,0,0,7,7H195.7A11.25,11.25,0,0,1,207,377H164.86a14.16,14.16,0,0,1-14.16-14.16V335a14.16,14.16,0,0,1,14.16-14.17H195.7A11.25,11.25,0,0,1,207,332Z"/><path class="cls-2" d="M116,354.54H96.26A11.25,11.25,0,0,1,85,343.29H104.7A11.25,11.25,0,0,1,116,354.54Z"/><path class="cls-2" d="M207.16,354.54H187.47a11.25,11.25,0,0,1-11.25-11.25h19.69a11.25,11.25,0,0,1,11.25,11.25Z"/></g></g></svg>